<svg xmlns="http://www.w3.org/2000/svg" version="1.1" id="svg1" viewBox="1500 900 2350 2600">
  <g id="g1">
    <g id="group-R5">

      <path id="path3" d="m 24134.8,26981.3 c 1492.5,1114 1125.2,3176.5 370.4,5365.7 1234.2,-1144 3099.2,-2842.9 2933.6,-5871.4 l 481.6,322.1 c -91.2,-819.8 -426,-2114.7 -1109.9,-2958 1488.1,-1846.9 1371.9,-5922.4 -466.9,-7761.2 l -110.1,713.5 c -277,-1090 -1950.9,-2299.4 -2956.6,-2638.3 l 49.4,664.8 c -482.6,-550.9 -916.1,-983.5 -1819.2,-1516 96,797.6 -106,1500.1 -304.9,1844.6 -367.3,-607.1 -797.6,-1194.2 -1202.2,-1778.1 -404.6,583.9 -834.9,1171 -1202.2,1778.1 -198.9,-344.5 -400.9,-1047 -304.9,-1844.6 -903.1,532.5 -1336.6,965.1 -1819.2,1516 l 49.4,-664.8 c -1005.7,338.9 -2679.6,1548.3 -2956.6,2638.3 l -110.1,-713.5 c -1838.8,1838.8 -1955,5914.3 -466.9,7761.2 -683.9,843.3 -1018.7,2138.2 -1109.9,2958 l 481.6,-322.1 c -165.6,3028.5 1699.4,4727.4 2933.6,5871.4 -754.8,-2189.2 -1122.1,-4251.7 370.4,-5365.7 1042.4,1013.7 2721.5,1388.7 4134.8,1388.7 1413.3,0 3092.4,-375 4134.8,-1388.7 v 0" style="fill:#1e1b32;fill-opacity:1;fill-rule:nonzero;stroke:none" transform="matrix(0.13333333,0,0,-0.13333333,0,5333.3333)"/>
      <path id="path4" d="m 23703.8,26098.6 c 0,0 -1466.6,10.8 -2628.7,-926.7 l 1333.8,264.1 c 0,0 -1542.8,-647.1 -2408.9,-1703.6 -866.1,1056.5 -2408.9,1703.6 -2408.9,1703.6 l 1333.8,-264.1 c -1162.1,937.5 -2628.7,926.7 -2628.7,926.7 1447,1809.2 5960.7,1809.2 7407.6,0 v 0" style="fill:#9540a5;fill-opacity:1;fill-rule:nonzero;stroke:none" transform="matrix(0.13333333,0,0,-0.13333333,0,5333.3333)"/>
      <path id="path5" d="m 20000,14974.6 c 810.4,1169.5 1215.5,2143.6 1352.7,2924.8 -358.4,1631.8 -2347.4,1631.5 -2705.4,0 137.3,-781.1 542.3,-1755.3 1352.7,-2924.8" style="fill:#dd6f1a;fill-opacity:1;fill-rule:nonzero;stroke:none" transform="matrix(0.13333333,0,0,-0.13333333,0,5333.3333)"/>
      <path id="path6" d="m 21447.7,16448.9 c 410.6,-180.6 719.9,-718.2 662.2,-1517.9 1236.8,929 1370.2,2294.9 1371.7,2311 291.5,-655.4 367.8,-1291.7 367.8,-1291.7 2379.8,1291.8 2328.9,4124.8 2328.9,4124.8 l 291.1,-944.2 c 1199.9,2603.2 -469.4,4242.4 -469.4,4242.4 0,0 -366.1,-1213.6 -1687,-1913.3 0,0 276.9,-225.2 662.8,-291.8 0,0 -826,-1519.1 -2699.8,-637.5 0,0 51.9,-408.1 74.4,-551.8 -780.6,508.1 -1521.4,1963.6 -2350.4,1963.6 -829,0 -1569.8,-1455.5 -2350.4,-1963.6 22.5,143.7 74.4,551.8 74.4,551.8 -1873.8,-881.6 -2699.8,637.5 -2699.8,637.5 385.9,66.6 662.8,291.8 662.8,291.8 -1320.9,699.7 -1687,1913.3 -1687,1913.3 0,0 -1669.3,-1639.2 -469.4,-4242.4 l 291.1,944.2 c 0,0 -50.9,-2833 2328.9,-4124.8 0,0 76.3,636.3 367.8,1291.7 1.5,-16.1 134.9,-1382 1371.7,-2311 -57.7,799.7 251.6,1337.3 662.2,1517.9 -1225.9,2977.7 109.2,4488.4 1447.7,4506 1338.5,-17.6 2673.6,-1528.3 1447.7,-4506" style="fill:#9540a5;fill-opacity:1;fill-rule:nonzero;stroke:none" transform="matrix(0.13333333,0,0,-0.13333333,0,5333.3333)"/>
      <path id="path7" d="m 18518.8,24253.3 c -493.3,405.7 -1093.6,778.5 -1681.6,1069.2 -911.9,377.7 -1392,74.3 -1392,74.3 l 356.6,357.4 c 0,0 -2230.9,1749.8 -1445.6,4059.4 0,0 -1755.4,-2097.7 -429.8,-4608.2 l -582.5,140.6 c 431.8,-1192.5 2134.9,-2528.2 3616.3,-3188.3 2166,-965.1 2968.9,935.6 1558.6,2095.6 v 0" style="fill:#9540a5;fill-opacity:1;fill-rule:nonzero;stroke:none" transform="matrix(0.13333333,0,0,-0.13333333,0,5333.3333)"/>
      <path id="path8" d="m 21481.2,24253.3 c 493.3,405.7 1093.6,778.5 1681.6,1069.2 911.9,377.7 1392,74.3 1392,74.3 l -356.6,357.4 c 0,0 2230.9,1749.8 1445.6,4059.4 0,0 1755.4,-2097.7 429.8,-4608.2 l 582.5,140.6 c -431.8,-1192.5 -2134.9,-2528.2 -3616.3,-3188.3 -2166,-965.1 -2968.9,935.6 -1558.6,2095.6 v 0" style="fill:#9540a5;fill-opacity:1;fill-rule:nonzero;stroke:none" transform="matrix(0.13333333,0,0,-0.13333333,0,5333.3333)"/>
      <path id="path9" d="m 24583.1,24101 c -2612.5,-1989.2 -3805.6,-1108.2 -3583.4,-396.3 -663.1,-1108.7 192.8,-2370.1 2040.1,-1547 1481.4,660.1 3184.5,1995.8 3616.3,3188.3 l -582.5,-140.6 c 791.6,1499.2 484.5,2851.3 108.6,3697.3 804.3,-2605.8 -2255.5,-4877.4 -2255.5,-4877.4 l 656.4,75.7 v 0" style="fill:#743ea3;fill-opacity:1;fill-rule:nonzero;stroke:none" transform="matrix(0.13333333,0,0,-0.13333333,0,5333.3333)"/>
      <path id="path10" d="m 24975.8,21168.2 c 0,0 -826,-1519.1 -2699.8,-637.5 0,0 51.9,-408.1 74.4,-551.8 -780.6,508.1 -1521.4,1963.6 -2350.4,1963.6 -829,0 -1569.8,-1455.5 -2350.4,-1963.6 22.5,143.7 74.4,551.8 74.4,551.8 -1873.8,-881.6 -2699.8,637.5 -2699.8,637.5 385.9,66.6 662.8,291.8 662.8,291.8 -1320.9,699.7 -1687,1913.3 -1687,1913.3 0,0 -838.5,-1356.2 -427.7,-2889.8 l 618.4,576.2 c 0,0 10.8,-2861.3 1674,-4214 0,0 143.8,828.6 868.1,1493.4 0,0 72.2,-1066.6 1052.7,-1689.5 0,0 -323.4,2176.1 647.2,3384.5 269.1,442.5 661.6,726 1087.6,849.6 156.9,45.6 318.3,69.4 479.7,71.5 161.4,-2.1 322.8,-25.9 479.7,-71.5 426,-123.6 818.5,-407.1 1087.6,-849.6 970.6,-1208.4 647.2,-3384.5 647.2,-3384.5 980.5,622.9 1052.7,1689.5 1052.7,1689.5 724.3,-664.8 868.1,-1493.4 868.1,-1493.4 1663.2,1352.7 1674,4214 1674,4214 l 618.4,-576.2 c 410.8,1533.6 -427.7,2889.8 -427.7,2889.8 0,0 -366.1,-1213.6 -1687,-1913.3 0,0 276.9,-225.2 662.8,-291.8 v 0" style="fill:#743ea3;fill-opacity:1;fill-rule:nonzero;stroke:none" transform="matrix(0.13333333,0,0,-0.13333333,0,5333.3333)"/>
      <path id="path11" d="m 20216.1,25250.3 251.8,-160.9 c -268.4,-109 -467.9,-281.1 -467.9,-281.1 0,0 -199.5,172.1 -467.9,281.1 l 251.8,160.9 c 0,0 -1759.8,1202.2 -3487.7,848.3 0,0 1466.6,10.8 2628.7,-926.7 l -1333.8,264.1 c 0,0 1542.8,-647.1 2408.9,-1703.6 866.1,1056.5 2408.9,1703.6 2408.9,1703.6 l -1333.8,-264.1 c 1162.1,937.5 2628.7,926.7 2628.7,926.7 -1727.9,353.9 -3487.7,-848.3 -3487.7,-848.3 v 0" style="fill:#743ea3;fill-opacity:1;fill-rule:nonzero;stroke:none" transform="matrix(0.13333333,0,0,-0.13333333,0,5333.3333)"/>
      <path id="path12" d="m 15416.9,24101 c 2612.5,-1989.2 3805.6,-1108.2 3583.4,-396.3 663.1,-1108.7 -192.8,-2370.1 -2040.1,-1547 -1481.4,660.1 -3184.5,1995.8 -3616.3,3188.3 l 582.5,-140.6 c -791.6,1499.2 -484.5,2851.3 -108.6,3697.3 -804.3,-2605.8 2255.5,-4877.4 2255.5,-4877.4 l -656.4,75.7 v 0" style="fill:#743ea3;fill-opacity:1;fill-rule:nonzero;stroke:none" transform="matrix(0.13333333,0,0,-0.13333333,0,5333.3333)"/>
    </g>
  </g>
</svg>
